<svg width="40" height="40" viewBox="0 0 40 40" fill="none" xmlns="http://www.w3.org/2000/svg">
<path d="M0 8.65558V8.65558C3.74306 8.65558 6.77741 11.6899 6.77741 15.433V39.4056V39.4056C3.03435 39.4056 0 36.3712 0 32.6282V8.65558Z" fill="#141EFF"/>
<path d="M0 6.83331V6.83331C-1.63614e-07 3.05937 3.05939 -2.0162e-05 6.83333 -2.03283e-05L30.4983 -2.13713e-05V-2.13713e-05C30.4983 3.77392 27.439 6.83331 23.665 6.83331L0 6.83331Z" fill="#141EFF"/>
<path d="M32.3057 0V0C36.0487 0 39.0831 3.03435 39.0831 6.77741L39.0831 30.75V30.75C35.34 30.75 32.3057 27.7157 32.3057 23.9726L32.3057 0Z" fill="#141EFF"/>
<path d="M39.083 32.5722V32.5722C39.083 36.3461 36.0236 39.4055 32.2497 39.4055L8.58467 39.4055V39.4055C8.58467 35.6316 11.6441 32.5722 15.418 32.5722L39.083 32.5722Z" fill="#141EFF"/>
<path d="M0 8.65558V8.65558C3.74306 8.65558 6.77741 11.6899 6.77741 15.433V39.4056V39.4056C3.03435 39.4056 0 36.3712 0 32.6282V8.65558Z" fill="#141EFF"/>
<path d="M32.3057 0V0C36.0487 0 39.0831 3.03435 39.0831 6.77741L39.0831 30.75V30.75C35.34 30.75 32.3057 27.7157 32.3057 23.9726L32.3057 0Z" fill="#141EFF"/>
<path d="M39.083 32.5722V32.5722C39.083 36.3461 36.0236 39.4055 32.2497 39.4055L8.58467 39.4055V39.4055C8.58467 35.6316 11.6441 32.5722 15.418 32.5722L39.083 32.5722Z" fill="#141EFF"/>
<path d="M0 8.65558V8.65558C3.74306 8.65558 6.77741 11.6899 6.77741 15.433V39.4056V39.4056C3.03435 39.4056 0 36.3712 0 32.6282V8.65558Z" fill="#141EFF"/>
<path d="M32.3057 0V0C36.0487 0 39.0831 3.03435 39.0831 6.77741L39.0831 30.75V30.75C35.34 30.75 32.3057 27.7157 32.3057 23.9726L32.3057 0Z" fill="#141EFF"/>
<path d="M39.083 32.5722V32.5722C39.083 36.3461 36.0236 39.4055 32.2497 39.4055L8.58467 39.4055V39.4055C8.58467 35.6316 11.6441 32.5722 15.418 32.5722L39.083 32.5722Z" fill="#141EFF"/>
<path d="M19.4286 25.0556C16.5589 25.0556 14.2326 22.71 14.2326 19.8167C14.2326 16.9233 16.5589 14.5778 19.4286 14.5778C22.2983 14.5778 24.6246 16.9233 24.6246 19.8167C24.6246 22.71 22.2983 25.0556 19.4286 25.0556Z" fill="url(#paint0_linear_104_33)"/>
<path d="M0 6.83333C-1.63614e-07 3.05939 3.03435 1.2104e-06 6.77741 1.04543e-06L30.4983 0C30.4983 3.77395 27.464 6.83333 23.7209 6.83333L0 6.83333Z" fill="url(#paint1_linear_104_33)"/>
<path d="M0 8.65556C3.74306 8.65556 6.77741 11.7149 6.77741 15.4889V39.4056C3.03435 39.4056 0 36.3462 0 32.5722V8.65556Z" fill="url(#paint2_linear_104_33)"/>
<path d="M32.3056 1.3849e-06C36.0487 1.3849e-06 39.0831 3.05939 39.0831 6.83333V30.75C35.34 30.75 32.3056 27.6906 32.3056 23.9167V1.3849e-06Z" fill="url(#paint3_linear_104_33)"/>
<path d="M39.0831 32.5722C39.0831 36.3462 36.0487 39.4056 32.3056 39.4056H8.58472C8.58472 35.6316 11.6191 32.5722 15.3621 32.5722H39.0831Z" fill="url(#paint4_linear_104_33)"/>
<defs>
<linearGradient id="paint0_linear_104_33" x1="-2.82392" y1="-4.86728e-07" x2="46.3991" y2="39.011" gradientUnits="userSpaceOnUse">
<stop stop-color="#ED1BFF"/>
<stop offset="1" stop-color="#141EFF"/>
</linearGradient>
<linearGradient id="paint1_linear_104_33" x1="-2.82392" y1="-4.86728e-07" x2="46.3991" y2="39.011" gradientUnits="userSpaceOnUse">
<stop stop-color="#ED1BFF"/>
<stop offset="1" stop-color="#141EFF"/>
</linearGradient>
<linearGradient id="paint2_linear_104_33" x1="-2.82392" y1="-4.86728e-07" x2="46.3991" y2="39.011" gradientUnits="userSpaceOnUse">
<stop stop-color="#ED1BFF"/>
<stop offset="1" stop-color="#141EFF"/>
</linearGradient>
<linearGradient id="paint3_linear_104_33" x1="-2.82392" y1="-4.86728e-07" x2="46.3991" y2="39.011" gradientUnits="userSpaceOnUse">
<stop stop-color="#ED1BFF"/>
<stop offset="1" stop-color="#141EFF"/>
</linearGradient>
<linearGradient id="paint4_linear_104_33" x1="-2.82392" y1="-4.86728e-07" x2="46.3991" y2="39.011" gradientUnits="userSpaceOnUse">
<stop stop-color="#ED1BFF"/>
<stop offset="1" stop-color="#141EFF"/>
</linearGradient>
</defs>
</svg>
